<?xml version="1.0" encoding="UTF-8" standalone="no"?>
<!DOCTYPE svg PUBLIC "-//W3C//DTD SVG 20010904//EN" "http://www.w3.org/TR/2001/REC-SVG-20010904/DTD/svg10.dtd">
<svg version="1.0" xmlns="http://www.w3.org/2000/svg" width="541.000000pt" height="532.000000pt" viewBox="0 0 541.000000 532.000000" preserveAspectRatio="xMidYMid meet">
<metadata>
Created by potrace 1.16, written by Peter Selinger 2001-2019
</metadata>
<g transform="translate(0.000000,532.000000) scale(0.100000,-0.100000)" fill="#000000" stroke="none">
<path d="M2530 4659 c-166 -9 -346 -45 -525 -103 -594 -196 -1085 -676 -1296 -1269 -139 -389 -160 -826 -58 -1224 86 -338 263 -659 498 -905 l45 -48 82 0 c74 0 89 3 148 34 36 19 110 63 164 98 97 64 262 137 357 159 77 17 296 15 400 -4 88 -16 151 -40 745 -282 322 -130 439 -167 591 -186 92 -11 168 -7 244 13 46 11 115 67 229 183 799 813 790 2122 -19 2930 -352 353 -842 578 -1304 601 -58 2 -119 6 -136 7 -16 2 -91 0 -165 -4z m801 -255 c43 -38 30 -166 -19 -205 -35 -27 -66 -20 -161 36 -96 57 -135 60 -188 11 -34 -31 -37 -39 -41 -100 -6 -90 -2 -97 45 -84 21 6 79 11 128 12 79 0 95 -2 129 -23 21 -13 53 -48 72 -77 38 -60 53 -70 112 -80 113 -18 178 -139 120 -224 -30 -44 -70 -65 -97 -50 -16 8 -27 5 -57 -15 -65 -44 -184 -28 -184 25 0 22 16 27 104 33 47 3 62 8 77 28 37 48 13 153 -38 165 -16 4 -38 -4 -70 -26 -44 -29 -54 -31 -113 -28 -87 5 -149 42 -208 126 -35 50 -47 60 -60 53 -32 -17 -112 -93 -112 -105 0 -7 18 -20 40 -29 44 -17 70 -60 70 -115 0 -37 -47 -110 -96 -149 -97 -76 -202 -105 -394 -106 -119 -1 -128 0 -185 28 -118 57 -226 197 -242 310 -7 58 1 88 38 130 43 49 87 47 114 -6 20 -37 19 -52 -4 -80 -17 -22 -21 -22 -45 -9 -35 18 -50 3 -49 -47 1 -30 9 -45 41 -75 75 -69 160 -62 234 21 24 26 68 92 98 146 91 160 139 205 222 205 52 -1 73 -15 93 -63 28 -69 17 -106 -76 -244 -27 -40 -49 -75 -49 -80 0 -16 76 67 127 139 30 43 79 100 110 126 l56 49 7 89 c9 107 25 149 74 192 51 44 94 43 172 -4 37 -23 73 -36 98 -37 41 -2 61 18 29 29 -29 11 -63 46 -63 66 0 10 12 30 26 45 21 21 32 24 61 20 20 -4 44 -14 54 -23z m237 -1085 c34 -12 88 -40 120 -63 208 -153 234 -372 66 -564 -24 -28 -44 -52 -44 -54 0 -1 80 0 177 4 97 4 178 6 180 5 1 -2 -24 -36 -56 -75 l-59 -72 -5 -293 c-5 -346 -10 -371 -88 -449 -105 -105 -216 -124 -404 -70 -55 17 -140 42 -189 56 -104 31 -103 31 -260 -42 -117 -54 -179 -59 -260 -24 -60 27 -87 27 -154 2 -32 -12 -76 -20 -116 -20 -57 0 -74 5 -162 51 -98 50 -100 51 -169 45 -41 -3 -114 -21 -175 -41 -242 -83 -362 -75 -480 31 -79 72 -87 119 -106 594 l-7 175 -53 61 c-30 34 -54 64 -54 68 0 7 205 0 308 -10 l54 -6 -51 65 c-90 114 -123 216 -101 312 45 202 220 335 440 335 93 0 168 -19 260 -65 39 -20 112 -50 163 -68 l92 -32 230 0 c267 1 294 6 475 90 190 89 282 100 428 54z"/>
<path d="M3027 4039 c-21 -3 -46 -14 -55 -23 -16 -15 -16 -19 3 -53 30 -56 98 -103 147 -103 50 0 106 33 114 67 8 30 -11 67 -44 89 -30 20 -114 32 -165 23z"/>
<path d="M3452 3188 c-58 -9 -152 -52 -201 -94 -62 -52 -75 -93 -79 -252 -5 -190 7 -208 156 -233 175 -29 345 41 417 172 22 42 30 70 33 131 6 95 -11 146 -65 201 -61 63 -155 90 -261 75z"/>
<path d="M1706 3170 c-101 -39 -151 -121 -150 -242 1 -134 101 -265 232 -305 85 -26 242 -24 304 4 25 12 51 30 57 41 16 30 29 190 21 265 -9 81 -39 131 -106 178 -108 74 -256 99 -358 59z"/>
<path d="M2617 3102 c-99 -107 -102 -124 -102 -652 0 -420 1 -437 21 -480 45 -97 101 -139 159 -120 109 36 139 167 137 600 -1 421 -25 567 -106 655 -24 25 -47 45 -53 45 -6 0 -31 -22 -56 -48z"/>
<path d="M3187 2298 c-3 -167 -11 -329 -17 -361 -6 -33 -8 -62 -5 -65 4 -4 60 -9 125 -11 134 -4 208 12 259 54 51 43 55 74 56 370 0 149 4 279 9 289 8 17 6 18 -15 12 -71 -23 -325 -17 -390 9 -14 5 -17 -25 -22 -297z"/>
<path d="M1732 2294 c3 -298 3 -299 28 -344 21 -38 33 -48 76 -62 59 -20 231 -34 296 -24 l44 7 -8 52 c-4 29 -12 186 -17 351 -5 164 -13 302 -18 307 -4 4 -26 4 -48 -1 -111 -26 -263 -23 -339 6 -16 6 -17 -15 -14 -292z"/>
</g>
</svg>