<svg width="122" height="22" viewBox="0 0 122 22" fill="none" xmlns="http://www.w3.org/2000/svg">
<path d="M3.22695 5.95654H6.4539V20.6795H3.22695V5.95654Z" fill="#37FF92"/>
<path d="M0 2.72959H3.22695V5.95654H0V2.72959Z" fill="#37FF92"/>
<path d="M15.3242 21.0223C19.4381 21.0223 22.352 18.5083 22.352 13.5374C22.352 8.56651 19.4381 6.05249 15.3242 6.05249C11.2104 6.05249 8.2964 8.56651 8.2964 13.5374C8.2964 18.5083 11.2104 21.0223 15.3242 21.0223ZM15.3242 18.2798C13.2102 18.2798 11.8389 16.7085 11.8389 13.5374C11.8389 10.3663 13.2102 8.79506 15.3242 8.79506C17.4383 8.79506 18.8096 10.3663 18.8096 13.5374C18.8096 16.7085 17.4383 18.2798 15.3242 18.2798Z" fill="#37FF92"/>
<path d="M42.8857 15.6229C42.8857 19.3082 44.7712 21.0223 47.5424 21.0223C49.5993 21.0223 51.2277 20.0796 52.0562 18.2798V20.6795H55.3701V6.39532H51.9419V14.7087C51.9419 17.0227 50.7706 18.1941 48.9993 18.1941C47.2852 18.1941 46.3139 17.2227 46.3139 15.1372V6.39532H42.8857V15.6229Z" fill="#37FF92"/>
<path d="M61.2163 0.681641H57.7881V3.8813H61.2163V0.681641ZM61.2163 6.39532H57.7881V20.6795H61.2163V6.39532Z" fill="#37FF92"/>
<path d="M67.1041 0.681641H63.6759V20.6795H67.1041V0.681641Z" fill="#37FF92"/>
<path d="M79.734 20.6795H83.0479V0.681641H79.6197V8.99504C78.6198 7.05239 76.8772 6.05249 74.7631 6.05249C71.392 6.05249 68.9637 8.59508 68.9637 13.5374C68.9637 18.4797 71.392 21.0223 74.7631 21.0223C76.9629 21.0223 78.7341 19.9367 79.734 17.8512V20.6795ZM76.0772 8.79506C78.2484 8.79506 79.6197 10.3663 79.6197 13.5374C79.6197 16.7085 78.2484 18.2798 76.0772 18.2798C73.8775 18.2798 72.5062 16.7085 72.5062 13.5374C72.5062 10.3663 73.8775 8.79506 76.0772 8.79506Z" fill="#37FF92"/>
<path d="M98.3793 16.3371H94.8654C94.5797 17.5084 93.6655 18.3655 91.8657 18.3655C89.7802 18.3655 88.3518 17.0799 88.2375 14.4802H98.6079C98.6364 14.1659 98.6364 13.8802 98.6364 13.5374C98.6364 8.56651 95.751 6.05249 91.8657 6.05249C87.7805 6.05249 84.8379 8.53794 84.8379 13.5374C84.8379 18.5369 87.7805 21.0223 91.8657 21.0223C95.4082 21.0223 97.9794 19.2225 98.3793 16.3371ZM91.8657 8.70935C93.6941 8.70935 94.9797 9.82352 95.2082 12.0804H88.2947C88.5518 9.82352 89.9231 8.70935 91.8657 8.70935Z" fill="#37FF92"/>
<path d="M107.735 9.39499C108.249 9.39499 108.62 9.45213 108.935 9.53784V6.39532C108.62 6.30961 108.278 6.25247 107.82 6.25247C105.821 6.25247 104.278 7.33807 103.592 9.70925V6.39532H100.45V20.6795H103.878V13.366C103.878 10.652 105.421 9.39499 107.735 9.39499Z" fill="#37FF92"/>
<path d="M109.649 10.3663C109.649 16.1371 118.105 13.7088 118.105 16.7085C118.105 17.7655 117.077 18.4226 115.534 18.4226C113.706 18.4226 112.62 17.5941 112.506 16.3371H109.22C109.277 19.1654 111.706 21.0223 115.534 21.0223C118.962 21.0223 121.333 19.4796 121.333 16.5371C121.333 10.7948 112.906 13.166 112.906 10.1949C112.906 9.25215 113.82 8.65222 115.163 8.65222C116.762 8.65222 117.705 9.36643 117.791 10.5092H121.076C121.048 7.88087 118.934 6.05249 115.163 6.05249C111.849 6.05249 109.649 7.62375 109.649 10.3663Z" fill="#37FF92"/>
<path fill-rule="evenodd" clip-rule="evenodd" d="M24.6055 0.712751V20.6795H40.9419V9.38518H37.715V4.14139H34.488V0.712751H24.6055ZM34.488 4.14139V9.38518H27.8324V4.14139H34.488ZM37.715 12.8138H27.8324V17.4525H37.715V12.8138Z" fill="#37FF92"/>
</svg>
